<?xml version="1.0" encoding="UTF-8"?>
<svg width="1024" height="1024" version="1.1" viewBox="0 0 270.93 270.93" xml:space="preserve" xmlns="http://www.w3.org/2000/svg" xmlns:xlink="http://www.w3.org/1999/xlink"><defs><linearGradient id="linearGradient18"><stop stop-color="#fff" offset="0"/><stop stop-color="#fff" offset=".29035"/><stop stop-color="#8f8f8f" offset=".37659"/><stop stop-color="#8f8f8f" offset=".42517"/><stop stop-color="#fff" offset=".49801"/><stop stop-color="#fff" offset=".75316"/><stop stop-color="#a0a0a0" offset=".88818"/></linearGradient><linearGradient id="linearGradient19" x1="130.42" x2="130.42" y1="19.714" y2="251.09" gradientTransform="matrix(.86312 0 0 .8626 17.173 18.613)" gradientUnits="userSpaceOnUse" xlink:href="#linearGradient18"/><linearGradient id="linearGradient2" x1="135.47" x2="135.47" y1="18.628" y2="252.31" gradientUnits="userSpaceOnUse" xlink:href="#linearGradient18"/></defs><g transform="matrix(.9659 0 0 .9659 4.6192 4.6192)"><rect x="18.628" y="18.628" width="233.68" height="233.68" rx="17.975" ry="17.975" enable-background="new" stroke="url(#linearGradient2)" stroke-width="5" style="paint-order:normal"/><path d="m131.2 33.285c-31.991 1.3511-64.463 20.09-81.637 47.133l15.397 8.8945c4.425-6.821 11.133-13.752 15.836-17.984l12.982 14.727 20.197-11.661-6.2637-18.605c6.0166-1.957 15.373-4.3016 23.493-4.7232zm8.5287 0-.005 17.781c8.1197.42162 17.477 2.7662 23.493 4.7232l-6.2637 18.605 20.197 11.661 12.982-14.727c4.7031 4.232 11.411 11.163 15.836 17.984l15.397-8.8945c-17.174-27.043-49.646-45.782-81.637-47.133zm-4.6188 48.288c-3.1298.03737-5.6406 2.5971-5.6157 5.7252.0201 1.9949 1.0863 3.8328 2.8081 4.8421l-11.088 18.843h-21.48l-.001-.0894c-.04928-3.128-2.62-5.6275-5.75-5.5904-3.1301.0371-5.6411 2.5964-5.6162 5.7247.02494 3.1282 2.576 5.6478 5.7061 5.6353.97335-.009 1.9282-.26707 2.773-.75034l10.786 19.022-10.746 18.6c-.88146-.51216-1.8841-.77798-2.9037-.76946-3.1299.0371-5.6409 2.5966-5.6162 5.7247.02469 3.1283 2.5758 5.6478 5.7061 5.6353 3.1122-.0127 5.6354-2.5245 5.6601-5.6348l21.863.17519 10.747 18.603c-1.7714 1.0187-2.8593 2.9091-2.8489 4.9516.0247 3.1283 2.5758 5.6478 5.7061 5.6353 3.1302-.0124 5.6613-2.5519 5.6612-5.6803l-.001-.0894c-.0349-1.9791-1.0978-3.7975-2.806-4.7992l11.087-18.842h21.483c-.00086.015-.002.03-.003.045.0247 3.1282 2.5755 5.6476 5.7056 5.6353 3.1302-.0124 5.6613-2.5524 5.6612-5.6808l-.00051-.0894c-.0495-3.1279-2.6207-5.6269-5.7506-5.5898-.95804.0163-1.896.27445-2.7275.75034l-10.787-19.022 10.746-18.602c.86782.50488 1.8541.77132 2.8582.77153 3.13-.0124 5.661-2.5521 5.6612-5.6803l-.00051-.0894c-.0493-3.128-2.6205-5.6274-5.7506-5.5904-3.0925.0398-5.5854 2.5435-5.61 5.6343l-21.868-.17518-10.741-18.592c1.7585-1.0141 2.8419-2.8885 2.8427-4.9175l-.00052-.09043c-.0495-3.1277-2.6204-5.6266-5.75-5.5898zm-90.727 6.7608c-14.826 28.381-14.833 65.872 0 94.266l15.401-8.8868c-3.6947-7.2426-6.3424-16.518-7.6559-22.707l19.244-3.8788v-23.322l-19.244-3.8783c1.3135-6.189 3.9612-15.464 7.6559-22.707zm182.23 0-15.401 8.8868c3.6947 7.2426 6.3424 16.518 7.6559 22.707l-19.244 3.8783v23.322l19.244 3.8788c-1.3135 6.189-3.9612 15.464-7.6559 22.707l15.401 8.8868c14.833-28.394 14.826-65.885 0-94.266zm-161.66 93.287-15.396 8.8945c17.166 27.03 49.63 45.781 81.637 47.133l.004-17.781c-8.1196-.42162-17.476-2.7662-23.493-4.7232l6.2632-18.605-20.197-11.661-12.981 14.727c-4.7031-4.232-11.412-11.163-15.837-17.984zm141.01 0c-4.425 6.821-11.134 13.752-15.837 17.984l-12.981-14.727-20.197 11.661 6.2632 18.606c-6.0166 1.957-15.373 4.3011-23.493 4.7227l.004 17.781c32.007-1.3517 64.471-20.103 81.637-47.133z" fill="url(#linearGradient19)" stop-color="#000000" style="-inkscape-stroke:none;font-variation-settings:normal;paint-order:markers stroke fill"/></g></svg>
